<?xml version="1.0" standalone="no"?>
<!DOCTYPE svg PUBLIC "-//W3C//DTD SVG 20010904//EN"
 "http://www.w3.org/TR/2001/REC-SVG-20010904/DTD/svg10.dtd">
<svg version="1.0" xmlns="http://www.w3.org/2000/svg"
 width="431.000000pt" height="146.000000pt" viewBox="0 0 431.000000 146.000000"
 preserveAspectRatio="xMidYMid meet">
<metadata>
Created by potrace 1.16, written by Peter Selinger 2001-2019
</metadata>
<g transform="translate(0.000000,146.000000) scale(0.100000,-0.100000)"
fill="#000000" stroke="none">
<path d="M0 730 l0 -730 2155 0 2155 0 0 730 0 730 -2155 0 -2155 0 0 -730z
m840 546 c89 -31 195 -101 250 -165 56 -65 118 -189 135 -269 62 -292 -105
-591 -386 -689 -189 -66 -401 -29 -566 98 -133 103 -223 292 -223 469 0 70 30
191 66 264 72 148 224 269 390 311 90 22 240 14 334 -19z m1370 -461 l0 -165
-24 0 c-14 0 -28 5 -31 10 -4 7 -12 7 -25 0 -50 -27 -108 -3 -139 57 l-18 36
-6 -32 c-4 -21 -17 -38 -39 -51 -89 -54 -196 7 -184 105 7 58 51 95 114 95 56
0 89 -20 107 -64 12 -28 14 -29 21 -11 4 11 18 32 32 48 20 21 35 27 67 27 22
0 46 -5 53 -12 9 -9 12 3 12 55 l0 67 30 0 30 0 0 -165z m-543 126 c61 -28 82
-74 39 -85 -19 -5 -32 0 -50 19 -48 48 -136 22 -151 -44 -8 -39 17 -98 49
-112 33 -15 92 -3 110 22 10 15 20 18 40 13 35 -8 33 -26 -9 -63 -42 -36 -72
-45 -127 -38 -83 11 -132 75 -125 165 8 116 113 173 224 123z m1017 5 c36 -15
76 -53 76 -72 0 -6 -11 -15 -24 -18 -18 -4 -32 1 -52 19 -35 33 -83 33 -121 1
-23 -20 -28 -32 -28 -71 0 -39 5 -51 29 -72 24 -21 37 -24 70 -20 24 4 46 14
56 27 12 16 22 20 43 15 32 -9 33 -14 6 -49 -62 -79 -189 -73 -246 13 -17 24
-23 49 -23 86 0 115 107 186 214 141z m946 -141 l0 -155 -30 0 -30 0 0 155 0
155 30 0 30 0 0 -155z m-1213 50 c19 -13 43 -68 43 -97 0 -5 -36 -8 -80 -8
-65 0 -80 -3 -80 -15 0 -9 12 -21 26 -27 21 -10 31 -9 53 3 27 15 71 14 71 -1
0 -4 -14 -20 -31 -34 -35 -30 -84 -34 -129 -11 -38 20 -50 43 -50 100 0 38 5
52 29 76 25 24 38 29 78 29 27 0 58 -7 70 -15z m554 -14 c24 -24 29 -38 29
-76 0 -57 -12 -80 -52 -101 -77 -40 -178 12 -178 92 0 74 41 113 118 114 46 0
58 -4 83 -29z m116 -41 c14 -36 26 -66 27 -68 2 -1 14 28 28 65 23 64 27 68
58 71 24 3 31 0 27 -10 -3 -7 -24 -57 -47 -111 -39 -89 -45 -98 -67 -95 -21 3
-32 19 -69 106 -24 57 -44 106 -44 109 0 2 14 3 32 1 28 -3 33 -9 55 -68z
m328 45 c17 -16 25 -35 25 -60 l0 -35 -75 0 c-59 0 -75 -3 -75 -15 0 -16 30
-35 54 -35 8 0 21 7 29 14 10 11 23 13 43 7 l29 -7 -32 -32 c-36 -36 -84 -42
-133 -17 -38 20 -50 43 -50 100 0 38 5 52 29 76 25 24 37 29 81 29 41 0 56 -5
75 -25z m325 15 c0 -7 6 -7 19 0 29 15 87 12 105 -5 20 -20 28 -66 24 -140 -3
-57 -4 -60 -30 -63 -28 -3 -28 -3 -28 57 0 78 -13 111 -43 111 -38 0 -47 -19
-47 -97 l0 -73 -30 0 -30 0 0 110 0 110 30 0 c17 0 30 -5 30 -10z m243 -2 c4
-10 7 -10 18 0 21 19 86 15 109 -8 17 -17 20 -33 20 -110 l0 -90 -30 0 -29 0
-3 83 -3 82 -33 3 c-27 3 -34 -1 -42 -23 -6 -14 -10 -53 -10 -86 0 -60 0 -60
-27 -57 l-28 3 -3 108 -3 107 30 0 c16 0 31 -6 34 -12z"/>
<path d="M530 1225 c-226 -56 -383 -235 -405 -465 -13 -128 41 -289 129 -387
101 -112 237 -174 381 -175 155 0 270 46 376 152 221 219 205 570 -36 769
-125 104 -292 143 -445 106z m245 -20 c129 -34 253 -132 317 -251 77 -142 77
-315 0 -472 -33 -69 -138 -177 -208 -214 -195 -104 -439 -66 -594 91 -102 103
-149 216 -150 356 -1 276 222 503 495 504 45 1 107 -6 140 -14z"/>
<path d="M575 1041 c-12 -5 9 -6 55 -3 161 10 250 -55 250 -180 0 -108 -67
-173 -175 -172 -57 0 -58 0 -22 -9 121 -30 237 53 237 170 0 80 -38 136 -120
179 -39 20 -190 30 -225 15z"/>
<path d="M484 1000 c-64 -36 -108 -89 -135 -160 -30 -80 -24 -205 15 -283 98
-202 376 -245 551 -85 31 28 54 52 52 54 -2 2 -23 -14 -47 -36 -73 -68 -120
-85 -230 -85 -83 0 -101 4 -145 27 -130 68 -198 209 -174 361 16 97 61 163
149 216 54 32 22 25 -36 -9z"/>
</g>
</svg>
