<?xml version="1.0" standalone="no"?>
<!DOCTYPE svg PUBLIC "-//W3C//DTD SVG 20010904//EN"
 "http://www.w3.org/TR/2001/REC-SVG-20010904/DTD/svg10.dtd">
<svg version="1.0" xmlns="http://www.w3.org/2000/svg"
 width="266.000000pt" height="73.000000pt" viewBox="0 0 266.000000 73.000000"
 preserveAspectRatio="xMidYMid meet">

<g transform="translate(0.000000,73.000000) scale(0.100000,-0.100000)"
fill="#000000" stroke="none">
<path d="M368 675 c-53 -20 -123 -70 -152 -108 -104 -136 -96 -311 19 -435 67
-73 131 -103 230 -110 99 -6 171 23 246 97 71 71 99 141 99 244 0 125 -72 239
-186 297 -61 30 -197 38 -256 15z m228 -45 c54 -23 109 -73 141 -128 23 -38
27 -59 29 -131 l2 -86 -7 80 c-8 92 -31 142 -88 197 -54 52 -115 78 -189 78
-118 0 -211 -56 -261 -158 -57 -117 -29 -251 72 -340 143 -126 366 -75 446
102 10 23 19 35 19 28 0 -27 -40 -90 -88 -134 -113 -106 -284 -102 -397 8 -63
61 -89 121 -89 209 -1 215 214 359 410 275z m-138 -94 c-67 -18 -97 -42 -120
-93 -39 -88 -1 -200 82 -244 60 -33 146 -22 211 25 8 6 1 -1 -15 -17 -39 -35
-97 -51 -156 -43 -123 17 -197 163 -141 278 31 64 94 106 161 106 15 1 6 -4
-22 -12z m123 -12 c43 -22 64 -75 48 -121 -13 -41 -60 -73 -104 -72 l-30 1 35
9 c49 14 80 51 80 97 -1 40 -11 59 -50 85 -31 21 -19 22 21 1z"/>
<path d="M982 484 c-59 -24 -69 -88 -23 -135 16 -16 39 -29 51 -29 30 0 80 28
80 45 0 19 -4 19 -41 -1 -37 -19 -67 -10 -75 21 -15 59 15 86 71 66 43 -15 55
-8 31 18 -23 25 -58 31 -94 15z"/>
<path d="M1330 470 c0 -27 -3 -30 -29 -30 -19 0 -36 -8 -49 -25 l-19 -24 -11
24 c-16 34 -83 36 -106 3 -23 -32 -20 -54 10 -77 35 -27 59 -26 88 2 l23 23
21 -23 c18 -20 30 -24 64 -21 l43 3 3 88 c3 82 2 87 -18 87 -16 0 -20 -6 -20
-30z m-136 -72 c7 -12 6 -21 -3 -32 -18 -22 -38 -20 -51 3 -7 15 -6 24 6 36
19 18 33 16 48 -7z m140 -4 c8 -20 -11 -44 -34 -44 -18 0 -30 25 -23 48 7 18
50 15 57 -4z"/>
<path d="M2147 493 c-4 -3 -7 -42 -7 -85 0 -63 3 -78 15 -78 12 0 15 16 15 85
0 78 -5 96 -23 78z"/>
<path d="M1540 470 c-29 -29 -27 -94 5 -125 29 -30 59 -31 104 -4 25 15 31 23
22 32 -8 8 -19 7 -41 -6 -34 -20 -64 -11 -75 23 -15 48 34 88 76 61 25 -15 39
-14 39 4 0 37 -97 48 -130 15z"/>
<path d="M1403 428 c-30 -39 -17 -94 24 -105 27 -6 73 11 73 26 0 6 -15 9 -32
8 -45 -3 -47 17 -3 21 37 3 47 26 23 50 -16 16 -73 15 -85 0z m62 -18 c4 -6
-5 -10 -20 -10 -15 0 -24 4 -20 10 3 6 12 10 20 10 8 0 17 -4 20 -10z"/>
<path d="M1702 428 c-7 -7 -12 -27 -12 -45 0 -67 85 -83 119 -22 13 24 13 29
-2 53 -14 20 -26 26 -55 26 -21 0 -43 -5 -50 -12z m73 -43 c0 -25 -4 -30 -25
-30 -28 0 -39 27 -19 51 20 24 44 13 44 -21z"/>
<path d="M1823 428 c34 -87 41 -98 57 -98 12 0 25 17 39 49 25 59 25 61 5 61
-8 0 -20 -13 -25 -30 -6 -16 -15 -30 -19 -30 -4 0 -13 14 -19 30 -5 17 -17 30
-27 30 -9 0 -14 -6 -11 -12z"/>
<path d="M1954 415 c-14 -21 -15 -31 -6 -51 16 -34 55 -50 87 -36 35 16 31 32
-7 29 -18 -1 -35 3 -38 8 -3 6 13 11 38 13 46 3 49 7 26 40 -22 32 -78 30
-100 -3z m76 -5 c0 -5 -12 -10 -26 -10 -14 0 -23 4 -19 10 3 6 15 10 26 10 10
0 19 -4 19 -10z"/>
<path d="M2200 385 c0 -68 23 -76 36 -12 6 26 15 42 24 42 9 0 18 -16 24 -42
11 -54 36 -58 36 -7 0 59 -14 74 -70 74 l-50 0 0 -55z"/>
<path d="M2340 385 c0 -42 3 -55 15 -55 9 0 15 10 15 26 0 36 17 64 35 58 10
-4 15 -20 15 -45 0 -32 3 -39 20 -39 16 0 20 7 20 36 0 59 -14 74 -70 74 l-50
0 0 -55z"/>
<path d="M2485 350 c-7 -12 2 -30 16 -30 12 0 12 27 0 35 -5 3 -12 1 -16 -5z"/>
<path d="M942 235 c2 -25 12 -32 23 -16 3 5 1 12 -5 16 -6 4 -8 11 -5 16 4 5
1 9 -4 9 -6 0 -10 -11 -9 -25z"/>
<path d="M1000 250 c0 -5 7 -7 16 -3 12 4 15 2 12 -8 -3 -8 -12 -13 -19 -11
-11 3 -12 1 -1 -9 16 -17 37 3 29 25 -7 17 -37 22 -37 6z"/>
<path d="M1071 238 c-1 -16 4 -28 9 -28 12 0 12 8 0 35 -8 18 -9 17 -9 -7z"/>
<path d="M1121 250 c-1 -23 15 -43 28 -36 6 4 11 17 10 29 -1 20 -2 20 -9 -3
l-7 -25 -11 25 c-6 14 -11 18 -11 10z"/>
<path d="M1190 253 c0 -5 4 -14 9 -21 6 -10 10 -9 14 7 3 14 0 21 -9 21 -8 0
-14 -3 -14 -7z"/>
<path d="M1290 250 c0 -5 7 -7 16 -3 12 4 15 2 12 -8 -3 -8 -12 -13 -19 -11
-11 3 -11 1 -2 -8 15 -16 33 -4 33 21 0 12 -7 19 -20 19 -11 0 -20 -4 -20 -10z"/>
<path d="M1360 238 c0 -19 2 -20 10 -8 13 19 13 30 0 30 -5 0 -10 -10 -10 -22z"/>
<path d="M1393 245 c-9 -10 -9 -16 -2 -20 14 -9 22 0 17 18 -2 13 -5 13 -15 2z"/>
<path d="M1443 235 c0 -25 11 -33 22 -16 3 5 1 12 -5 16 -6 4 -8 11 -5 16 4 5
2 9 -3 9 -5 0 -9 -11 -9 -25z"/>
<path d="M1537 240 c3 -11 9 -17 14 -14 14 8 10 34 -5 34 -9 0 -12 -7 -9 -20z"/>
<path d="M1591 234 c0 -16 3 -23 6 -16 2 6 11 12 19 12 8 0 14 5 14 12 0 6 -3
8 -7 5 -3 -4 -12 -2 -20 4 -10 9 -13 6 -12 -17z"/>
<path d="M1670 241 c-14 -27 -13 -30 10 -24 21 6 28 23 9 23 -5 0 -7 5 -4 10
3 6 4 10 1 10 -3 0 -10 -9 -16 -19z"/>
<path d="M1737 240 c3 -11 7 -20 8 -20 1 0 5 9 8 20 3 12 0 20 -8 20 -8 0 -11
-8 -8 -20z"/>
<path d="M1870 244 c0 -8 5 -12 10 -9 6 4 8 11 5 16 -9 14 -15 11 -15 -7z"/>
<path d="M1897 246 c-4 -10 -5 -21 -2 -24 9 -9 17 6 13 25 -3 17 -4 17 -11 -1z"/>
<path d="M1943 238 c5 -32 27 -35 25 -4 -1 14 -8 26 -15 26 -8 0 -11 -9 -10
-22z"/>
<path d="M2020 250 c10 -6 11 -10 3 -10 -7 0 -13 -5 -13 -11 0 -8 5 -8 15 1
16 13 11 30 -8 30 -7 0 -6 -4 3 -10z"/>
<path d="M2110 242 c0 -10 7 -19 15 -19 12 0 12 3 2 16 -9 12 -9 13 1 7 6 -4
12 -2 12 3 0 6 -7 11 -15 11 -8 0 -15 -8 -15 -18z"/>
<path d="M2170 235 c0 -16 6 -25 15 -25 12 0 13 4 5 19 -7 14 -6 21 3 24 7 3
5 6 -5 6 -13 1 -18 -7 -18 -24z"/>
<path d="M1821 234 c0 -11 3 -14 6 -6 3 7 2 16 -1 19 -3 4 -6 -2 -5 -13z"/>
</g>
</svg>
